<svg width="222" height="46" viewBox="0 0 222 46" fill="none" xmlns="http://www.w3.org/2000/svg">
<path d="M71.7137 26.691H60.9548C61.1266 29.0854 62.6352 30.2827 65.4806 30.2827C67.2953 30.2827 68.8898 29.8532 70.2642 28.9942V32.6664C68.7395 33.4824 66.7584 33.8904 64.321 33.8904C61.6581 33.8904 59.5911 33.1549 58.1201 31.6839C56.6491 30.2021 55.9136 28.1405 55.9136 25.4991C55.9136 22.7611 56.7081 20.5921 58.2973 18.9922C59.8864 17.3923 61.8406 16.5924 64.1599 16.5924C66.5651 16.5924 68.4227 17.3064 69.7327 18.7345C71.0534 20.1626 71.7137 22.1007 71.7137 24.5488V26.691ZM66.9946 23.5664C66.9946 21.2041 66.039 20.023 64.1277 20.023C63.3117 20.023 62.603 20.3612 62.0017 21.0377C61.4111 21.7142 61.0514 22.557 60.9226 23.5664H66.9946ZM90.8801 33.4878H85.7906V31.2168H85.7261C84.5665 32.9992 82.8646 33.8904 80.6205 33.8904C78.5589 33.8904 76.8999 33.1657 75.6437 31.7161C74.3874 30.2558 73.7592 28.2211 73.7592 25.6119C73.7592 22.8845 74.4518 20.6995 75.8369 19.0566C77.2221 17.4138 79.0367 16.5924 81.2808 16.5924C83.4068 16.5924 84.8886 17.3547 85.7261 18.8795H85.7906V9.07079H90.8801V33.4878ZM85.8872 25.4669V24.2267C85.8872 23.153 85.5758 22.2618 84.953 21.5531C84.3303 20.8444 83.5196 20.4901 82.521 20.4901C81.3936 20.4901 80.5131 20.9357 79.8796 21.8269C79.2461 22.7074 78.9293 23.9207 78.9293 25.4669C78.9293 26.9165 79.2353 28.0332 79.8474 28.817C80.4594 29.6008 81.3077 29.9927 82.3922 29.9927C83.423 29.9927 84.2605 29.5794 84.9047 28.7526C85.5597 27.9258 85.8872 26.8306 85.8872 25.4669ZM110.836 33.4878H105.762V30.9752H105.682C104.425 32.9187 102.745 33.8904 100.64 33.8904C96.8179 33.8904 94.9067 31.5765 94.9067 26.9487V16.995H99.9801V26.4977C99.9801 28.8277 100.904 29.9927 102.75 29.9927C103.663 29.9927 104.393 29.676 104.941 29.0425C105.488 28.3982 105.762 27.5285 105.762 26.4333V16.995H110.836V33.4878Z" fill="#181717"/>
<path d="M120.29 31.5712H120.226V41.0738H115.136V16.995H120.226V19.4754H120.29C121.546 17.5534 123.313 16.5924 125.589 16.5924C127.726 16.5924 129.374 17.3279 130.534 18.7989C131.704 20.2592 132.289 22.251 132.289 24.7743C132.289 27.5231 131.607 29.7297 130.244 31.394C128.891 33.0583 127.087 33.8904 124.832 33.8904C122.846 33.8904 121.332 33.1174 120.29 31.5712ZM120.145 24.8065V26.1273C120.145 27.2654 120.446 28.1942 121.047 28.9136C121.648 29.633 122.438 29.9927 123.415 29.9927C124.574 29.9927 125.471 29.5471 126.104 28.6559C126.749 27.754 127.071 26.4816 127.071 24.8388C127.071 21.9396 125.943 20.4901 123.688 20.4901C122.647 20.4901 121.793 20.8874 121.128 21.6819C120.473 22.4658 120.145 23.5073 120.145 24.8065ZM151.423 33.4878H146.35V24.114C146.35 21.6981 145.469 20.4901 143.708 20.4901C142.807 20.4901 142.076 20.8283 141.518 21.5048C140.96 22.1812 140.681 23.0402 140.681 24.0818V33.4878H135.591V9.07079H140.681V19.4432H140.745C141.99 17.5426 143.682 16.5924 145.818 16.5924C149.555 16.5924 151.423 18.8473 151.423 23.357V33.4878ZM158.043 14.3858C157.184 14.3858 156.481 14.1335 155.933 13.6288C155.385 13.1134 155.112 12.4853 155.112 11.7444C155.112 10.9821 155.385 10.3593 155.933 9.8761C156.481 9.39291 157.184 9.15132 158.043 9.15132C158.913 9.15132 159.616 9.39291 160.153 9.8761C160.701 10.3593 160.974 10.9821 160.974 11.7444C160.974 12.5175 160.701 13.151 160.153 13.6449C159.616 14.1389 158.913 14.3858 158.043 14.3858ZM160.556 33.4878H155.466V16.995H160.556V33.4878ZM163.761 33.0529V28.9297C164.598 29.4344 165.43 29.8102 166.257 30.0572C167.095 30.3041 167.884 30.4276 168.625 30.4276C169.527 30.4276 170.235 30.3041 170.751 30.0572C171.277 29.8102 171.54 29.4344 171.54 28.9297C171.54 28.6076 171.422 28.3392 171.186 28.1244C170.949 27.9097 170.643 27.7218 170.268 27.5607C169.903 27.3996 169.5 27.2547 169.06 27.1258C168.619 26.997 168.195 26.852 167.787 26.691C167.132 26.444 166.552 26.1809 166.048 25.9018C165.554 25.6119 165.135 25.279 164.791 24.9032C164.459 24.5274 164.201 24.0925 164.018 23.5986C163.847 23.1047 163.761 22.5195 163.761 21.843C163.761 20.9196 163.959 20.125 164.357 19.4593C164.765 18.7936 165.302 18.2513 165.967 17.8326C166.644 17.4031 167.411 17.0917 168.27 16.8984C169.14 16.6944 170.042 16.5924 170.976 16.5924C171.706 16.5924 172.447 16.6514 173.199 16.7696C173.951 16.8769 174.691 17.038 175.422 17.2527V21.1827C174.777 20.8068 174.085 20.5277 173.344 20.3451C172.614 20.1519 171.894 20.0552 171.186 20.0552C170.853 20.0552 170.536 20.0874 170.235 20.1519C169.945 20.2055 169.688 20.2914 169.462 20.4096C169.237 20.5169 169.06 20.6619 168.931 20.8444C168.802 21.0162 168.738 21.2149 168.738 21.4404C168.738 21.741 168.834 21.9987 169.027 22.2134C169.221 22.4282 169.473 22.6161 169.784 22.7772C170.096 22.9275 170.439 23.0671 170.815 23.1959C171.202 23.314 171.583 23.4375 171.959 23.5664C172.635 23.8026 173.247 24.0603 173.795 24.3395C174.342 24.6186 174.81 24.9461 175.196 25.3219C175.593 25.6978 175.894 26.138 176.098 26.6427C176.313 27.1473 176.42 27.7486 176.42 28.4466C176.42 29.4237 176.205 30.2612 175.776 30.9591C175.357 31.6463 174.793 32.21 174.085 32.6503C173.387 33.0798 172.576 33.3912 171.653 33.5844C170.74 33.7884 169.79 33.8904 168.802 33.8904C166.987 33.8904 165.307 33.6113 163.761 33.0529ZM194.185 26.691H183.426C183.598 29.0854 185.107 30.2827 187.952 30.2827C189.767 30.2827 191.361 29.8532 192.736 28.9942V32.6664C191.211 33.4824 189.23 33.8904 186.793 33.8904C184.13 33.8904 182.063 33.1549 180.592 31.6839C179.121 30.2021 178.385 28.1405 178.385 25.4991C178.385 22.7611 179.18 20.5921 180.769 18.9922C182.358 17.3923 184.312 16.5924 186.632 16.5924C189.037 16.5924 190.894 17.3064 192.204 18.7345C193.525 20.1626 194.185 22.1007 194.185 24.5488V26.691ZM189.466 23.5664C189.466 21.2041 188.511 20.023 186.599 20.023C185.783 20.023 185.075 20.3612 184.473 21.0377C183.883 21.7142 183.523 22.557 183.394 23.5664H189.466ZM207.972 21.5853C207.36 21.2524 206.646 21.086 205.83 21.086C204.724 21.086 203.86 21.494 203.237 22.3101C202.614 23.1154 202.303 24.216 202.303 25.6119V33.4878H197.213V16.995H202.303V20.0552H202.367C203.173 17.8218 204.622 16.7051 206.716 16.7051C207.253 16.7051 207.672 16.7696 207.972 16.8984V21.5853Z" fill="#1877F2"/>
<circle cx="20.9057" cy="24.5961" r="20.6532" fill="#1877F2"/>
<path d="M20.2288 11.0604C20.3673 10.3088 21.4444 10.3088 21.5829 11.0604L22.0796 13.7569C22.985 18.6716 26.8306 22.5171 31.7453 23.4225L34.4417 23.9192C35.1933 24.0577 35.1933 25.1349 34.4417 25.2733L31.7453 25.7701C26.8306 26.6755 22.985 30.521 22.0796 35.4357L21.5829 38.1321C21.4444 38.8838 20.3673 38.8838 20.2288 38.1321L19.7321 35.4357C18.8267 30.521 14.9811 26.6755 10.0664 25.7701L7.37001 25.2733C6.61839 25.1349 6.61839 24.0577 7.37001 23.9192L10.0664 23.4225C14.9811 22.5171 18.8267 18.6716 19.7321 13.7569L20.2288 11.0604Z" fill="white"/>
<path d="M32.8651 8.71202C32.9082 8.47803 33.2435 8.47803 33.2867 8.71202L33.4413 9.55147C33.7232 11.0815 34.9203 12.2787 36.4504 12.5606L37.2898 12.7152C37.5238 12.7583 37.5238 13.0936 37.2898 13.1368L36.4504 13.2914C34.9203 13.5733 33.7232 14.7704 33.4413 16.3005L33.2867 17.1399C33.2435 17.3739 32.9082 17.3739 32.8651 17.1399L32.7105 16.3005C32.4286 14.7704 31.2314 13.5733 29.7014 13.2914L28.8619 13.1368C28.6279 13.0936 28.6279 12.7583 28.8619 12.7152L29.7014 12.5606C31.2314 12.2787 32.4286 11.0815 32.7105 9.55147L32.8651 8.71202Z" fill="white"/>
</svg>
